<svg width="315" height="52" viewBox="0 0 315 52" fill="none" xmlns="http://www.w3.org/2000/svg">
<path d="M31.016 19H29.464V7.536H31.016V19ZM42.0981 15.352C41.4421 15.3733 40.8821 15.4267 40.4181 15.512C39.9595 15.592 39.5835 15.6987 39.2901 15.832C39.0021 15.9653 38.7915 16.1227 38.6581 16.304C38.5301 16.4853 38.4661 16.688 38.4661 16.912C38.4661 17.1253 38.5008 17.3093 38.5701 17.464C38.6395 17.6187 38.7328 17.7467 38.8501 17.848C38.9728 17.944 39.1141 18.016 39.2741 18.064C39.4395 18.1067 39.6155 18.128 39.8021 18.128C40.0528 18.128 40.2821 18.104 40.4901 18.056C40.6981 18.0027 40.8928 17.928 41.0741 17.832C41.2608 17.736 41.4368 17.6213 41.6021 17.488C41.7728 17.3547 41.9381 17.2027 42.0981 17.032V15.352ZM37.4981 12.04C37.9461 11.608 38.4288 11.2853 38.9461 11.072C39.4635 10.8587 40.0368 10.752 40.6661 10.752C41.1195 10.752 41.5221 10.8267 41.8741 10.976C42.2261 11.1253 42.5221 11.3333 42.7621 11.6C43.0021 11.8667 43.1835 12.1893 43.3061 12.568C43.4288 12.9467 43.4901 13.3627 43.4901 13.816V19H42.8581C42.7195 19 42.6128 18.9787 42.5381 18.936C42.4635 18.888 42.4048 18.7973 42.3621 18.664L42.2021 17.896C41.9888 18.0933 41.7808 18.2693 41.5781 18.424C41.3755 18.5733 41.1621 18.7013 40.9381 18.808C40.7141 18.9093 40.4741 18.9867 40.2181 19.04C39.9675 19.0987 39.6875 19.128 39.3781 19.128C39.0635 19.128 38.7675 19.0853 38.4901 19C38.2128 18.9093 37.9701 18.776 37.7621 18.6C37.5595 18.424 37.3968 18.2027 37.2741 17.936C37.1568 17.664 37.0981 17.344 37.0981 16.976C37.0981 16.656 37.1861 16.3493 37.3621 16.056C37.5381 15.7573 37.8235 15.4933 38.2181 15.264C38.6128 15.0347 39.1275 14.848 39.7621 14.704C40.3968 14.5547 41.1755 14.4693 42.0981 14.448V13.816C42.0981 13.1867 41.9621 12.712 41.6901 12.392C41.4181 12.0667 41.0208 11.904 40.4981 11.904C40.1461 11.904 39.8501 11.9493 39.6101 12.04C39.3755 12.1253 39.1701 12.224 38.9941 12.336C38.8235 12.4427 38.6741 12.5413 38.5461 12.632C38.4235 12.7173 38.3008 12.76 38.1781 12.76C38.0821 12.76 37.9995 12.736 37.9301 12.688C37.8608 12.6347 37.8021 12.5707 37.7541 12.496L37.4981 12.04ZM48.4833 15.04C48.7713 15.04 49.0246 15 49.2433 14.92C49.4619 14.84 49.6459 14.728 49.7953 14.584C49.9446 14.44 50.0566 14.2693 50.1313 14.072C50.2059 13.8693 50.2433 13.648 50.2433 13.408C50.2433 12.912 50.0913 12.5173 49.7873 12.224C49.4886 11.9307 49.0539 11.784 48.4833 11.784C47.9073 11.784 47.4673 11.9307 47.1633 12.224C46.8646 12.5173 46.7153 12.912 46.7153 13.408C46.7153 13.648 46.7526 13.8693 46.8273 14.072C46.9073 14.2693 47.0219 14.44 47.1713 14.584C47.3206 14.728 47.5046 14.84 47.7233 14.92C47.9419 15 48.1953 15.04 48.4833 15.04ZM51.0513 19.44C51.0513 19.2427 50.9953 19.0827 50.8833 18.96C50.7713 18.8373 50.6193 18.7413 50.4273 18.672C50.2406 18.6027 50.0219 18.5547 49.7713 18.528C49.5206 18.496 49.2539 18.472 48.9713 18.456C48.6939 18.44 48.4113 18.424 48.1233 18.408C47.8353 18.392 47.5579 18.3653 47.2913 18.328C46.9926 18.4667 46.7473 18.6427 46.5553 18.856C46.3686 19.064 46.2753 19.3093 46.2753 19.592C46.2753 19.7733 46.3206 19.9413 46.4113 20.096C46.5073 20.256 46.6513 20.392 46.8433 20.504C47.0353 20.6213 47.2753 20.712 47.5633 20.776C47.8566 20.8453 48.2006 20.88 48.5953 20.88C48.9793 20.88 49.3233 20.8453 49.6273 20.776C49.9313 20.7067 50.1873 20.608 50.3953 20.48C50.6086 20.352 50.7713 20.2 50.8833 20.024C50.9953 19.848 51.0513 19.6533 51.0513 19.44ZM52.4993 11.216V11.744C52.4993 11.92 52.3873 12.032 52.1633 12.08L51.2433 12.2C51.4246 12.552 51.5153 12.9413 51.5153 13.368C51.5153 13.7627 51.4379 14.1227 51.2833 14.448C51.1339 14.768 50.9259 15.0427 50.6593 15.272C50.3926 15.5013 50.0726 15.6773 49.6993 15.8C49.3259 15.9227 48.9206 15.984 48.4833 15.984C48.1046 15.984 47.7473 15.9387 47.4113 15.848C47.2406 15.9547 47.1099 16.0693 47.0193 16.192C46.9286 16.3093 46.8832 16.4293 46.8832 16.552C46.8832 16.744 46.9606 16.8907 47.1153 16.992C47.2753 17.088 47.4833 17.1573 47.7393 17.2C47.9953 17.2427 48.2859 17.2693 48.6113 17.28C48.9419 17.2907 49.2779 17.3093 49.6193 17.336C49.9659 17.3573 50.3019 17.3973 50.6273 17.456C50.9579 17.5147 51.2513 17.6107 51.5073 17.744C51.7633 17.8773 51.9686 18.0613 52.1233 18.296C52.2833 18.5307 52.3633 18.8347 52.3633 19.208C52.3633 19.5547 52.2753 19.8907 52.0993 20.216C51.9286 20.5413 51.6806 20.8293 51.3553 21.08C51.0299 21.336 50.6299 21.5387 50.1553 21.688C49.6859 21.8427 49.1553 21.92 48.5633 21.92C47.9713 21.92 47.4539 21.8613 47.0113 21.744C46.5686 21.6267 46.2006 21.4693 45.9073 21.272C45.6139 21.0747 45.3926 20.8453 45.2433 20.584C45.0993 20.328 45.0273 20.0587 45.0273 19.776C45.0273 19.376 45.1526 19.0373 45.4033 18.76C45.6539 18.4827 45.9979 18.2613 46.4353 18.096C46.1953 17.9893 46.0033 17.848 45.8593 17.672C45.7206 17.4907 45.6513 17.248 45.6513 16.944C45.6513 16.8267 45.6726 16.7067 45.7153 16.584C45.7579 16.456 45.8219 16.3307 45.9073 16.208C45.9979 16.08 46.1073 15.96 46.2353 15.848C46.3633 15.736 46.5126 15.6373 46.6833 15.552C46.2833 15.328 45.9713 15.032 45.7473 14.664C45.5233 14.2907 45.4113 13.8587 45.4113 13.368C45.4113 12.9733 45.4859 12.616 45.6353 12.296C45.7899 11.9707 46.0033 11.696 46.2753 11.472C46.5473 11.2427 46.8699 11.0667 47.2433 10.944C47.6219 10.8213 48.0353 10.76 48.4833 10.76C48.8353 10.76 49.1633 10.8 49.4673 10.88C49.7713 10.9547 50.0486 11.0667 50.2993 11.216H52.4993ZM55.3238 12.52C55.5798 11.9653 55.8944 11.5333 56.2678 11.224C56.6411 10.9093 57.0971 10.752 57.6358 10.752C57.8064 10.752 57.9691 10.7707 58.1238 10.808C58.2838 10.8453 58.4251 10.904 58.5478 10.984L58.4438 12.048C58.4118 12.1813 58.3318 12.248 58.2038 12.248C58.1291 12.248 58.0198 12.232 57.8758 12.2C57.7318 12.168 57.5691 12.152 57.3878 12.152C57.1318 12.152 56.9024 12.1893 56.6998 12.264C56.5024 12.3387 56.3238 12.4507 56.1638 12.6C56.0091 12.744 55.8678 12.9253 55.7398 13.144C55.6171 13.3573 55.5051 13.6027 55.4038 13.88V19H53.9718V10.896H54.7878C54.9424 10.896 55.0491 10.9253 55.1078 10.984C55.1664 11.0427 55.2064 11.144 55.2278 11.288L55.3238 12.52ZM64.8958 14.064C64.8958 13.7333 64.8478 13.432 64.7518 13.16C64.6611 12.8827 64.5251 12.6453 64.3438 12.448C64.1678 12.2453 63.9518 12.0907 63.6958 11.984C63.4398 11.872 63.1491 11.816 62.8238 11.816C62.1411 11.816 61.5998 12.016 61.1998 12.416C60.8051 12.8107 60.5598 13.36 60.4638 14.064H64.8958ZM66.0478 17.864C65.8718 18.0773 65.6611 18.264 65.4158 18.424C65.1704 18.5787 64.9064 18.7067 64.6238 18.808C64.3464 18.9093 64.0584 18.984 63.7598 19.032C63.4611 19.0853 63.1651 19.112 62.8718 19.112C62.3118 19.112 61.7944 19.0187 61.3198 18.832C60.8504 18.64 60.4424 18.3627 60.0958 18C59.7544 17.632 59.4878 17.1787 59.2958 16.64C59.1038 16.1013 59.0078 15.4827 59.0078 14.784C59.0078 14.2187 59.0931 13.6907 59.2638 13.2C59.4398 12.7093 59.6904 12.2853 60.0158 11.928C60.3411 11.5653 60.7384 11.2827 61.2078 11.08C61.6771 10.872 62.2051 10.768 62.7918 10.768C63.2771 10.768 63.7251 10.8507 64.1358 11.016C64.5518 11.176 64.9091 11.4107 65.2078 11.72C65.5118 12.024 65.7491 12.4027 65.9198 12.856C66.0904 13.304 66.1758 13.816 66.1758 14.392C66.1758 14.616 66.1518 14.7653 66.1038 14.84C66.0558 14.9147 65.9651 14.952 65.8318 14.952H60.4158C60.4318 15.464 60.5011 15.9093 60.6238 16.288C60.7518 16.6667 60.9278 16.984 61.1518 17.24C61.3758 17.4907 61.6424 17.68 61.9518 17.808C62.2611 17.9307 62.6078 17.992 62.9918 17.992C63.3491 17.992 63.6558 17.952 63.9118 17.872C64.1731 17.7867 64.3971 17.696 64.5838 17.6C64.7704 17.504 64.9251 17.416 65.0478 17.336C65.1758 17.2507 65.2851 17.208 65.3758 17.208C65.4931 17.208 65.5838 17.2533 65.6478 17.344L66.0478 17.864ZM73.3489 14.064C73.3489 13.7333 73.3009 13.432 73.2049 13.16C73.1142 12.8827 72.9782 12.6453 72.7969 12.448C72.6209 12.2453 72.4049 12.0907 72.1489 11.984C71.8929 11.872 71.6022 11.816 71.2769 11.816C70.5942 11.816 70.0529 12.016 69.6529 12.416C69.2582 12.8107 69.0129 13.36 68.9169 14.064H73.3489ZM74.5009 17.864C74.3249 18.0773 74.1142 18.264 73.8689 18.424C73.6235 18.5787 73.3595 18.7067 73.0769 18.808C72.7995 18.9093 72.5115 18.984 72.2129 19.032C71.9142 19.0853 71.6182 19.112 71.3249 19.112C70.7649 19.112 70.2475 19.0187 69.7729 18.832C69.3035 18.64 68.8955 18.3627 68.5489 18C68.2075 17.632 67.9409 17.1787 67.7489 16.64C67.5569 16.1013 67.4609 15.4827 67.4609 14.784C67.4609 14.2187 67.5462 13.6907 67.7169 13.2C67.8929 12.7093 68.1435 12.2853 68.4689 11.928C68.7942 11.5653 69.1915 11.2827 69.6609 11.08C70.1302 10.872 70.6582 10.768 71.2449 10.768C71.7302 10.768 72.1782 10.8507 72.5889 11.016C73.0049 11.176 73.3622 11.4107 73.6609 11.72C73.9649 12.024 74.2022 12.4027 74.3729 12.856C74.5435 13.304 74.6289 13.816 74.6289 14.392C74.6289 14.616 74.6049 14.7653 74.5569 14.84C74.5089 14.9147 74.4182 14.952 74.2849 14.952H68.8689C68.8849 15.464 68.9542 15.9093 69.0769 16.288C69.2049 16.6667 69.3809 16.984 69.6049 17.24C69.8289 17.4907 70.0955 17.68 70.4049 17.808C70.7142 17.9307 71.0609 17.992 71.4449 17.992C71.8022 17.992 72.1089 17.952 72.3649 17.872C72.6262 17.7867 72.8502 17.696 73.0369 17.6C73.2235 17.504 73.3782 17.416 73.5009 17.336C73.6289 17.2507 73.7382 17.208 73.8289 17.208C73.9462 17.208 74.0369 17.2533 74.1009 17.344L74.5009 17.864ZM82.9598 19.128C82.3198 19.128 81.8264 18.9493 81.4798 18.592C81.1384 18.2347 80.9678 17.72 80.9678 17.048V12.088H79.9918C79.9064 12.088 79.8344 12.064 79.7758 12.016C79.7171 11.9627 79.6878 11.8827 79.6878 11.776V11.208L81.0158 11.04L81.3438 8.536C81.3598 8.456 81.3944 8.392 81.4478 8.344C81.5064 8.29067 81.5811 8.264 81.6718 8.264H82.3918V11.056H84.7358V12.088H82.3918V16.952C82.3918 17.2933 82.4744 17.5467 82.6398 17.712C82.8051 17.8773 83.0184 17.96 83.2798 17.96C83.4291 17.96 83.5571 17.9413 83.6638 17.904C83.7758 17.8613 83.8718 17.816 83.9518 17.768C84.0318 17.72 84.0984 17.6773 84.1518 17.64C84.2104 17.5973 84.2611 17.576 84.3038 17.576C84.3784 17.576 84.4451 17.6213 84.5038 17.712L84.9198 18.392C84.6744 18.6213 84.3784 18.8027 84.0318 18.936C83.6851 19.064 83.3278 19.128 82.9598 19.128ZM89.5753 10.768C90.1673 10.768 90.7006 10.8667 91.1753 11.064C91.6499 11.2613 92.0553 11.5413 92.3913 11.904C92.7273 12.2667 92.9833 12.7067 93.1593 13.224C93.3406 13.736 93.4313 14.3093 93.4313 14.944C93.4313 15.584 93.3406 16.16 93.1593 16.672C92.9833 17.184 92.7273 17.6213 92.3913 17.984C92.0553 18.3467 91.6499 18.6267 91.1753 18.824C90.7006 19.016 90.1673 19.112 89.5753 19.112C88.9779 19.112 88.4393 19.016 87.9593 18.824C87.4846 18.6267 87.0793 18.3467 86.7433 17.984C86.4073 17.6213 86.1486 17.184 85.9673 16.672C85.7913 16.16 85.7033 15.584 85.7033 14.944C85.7033 14.3093 85.7913 13.736 85.9673 13.224C86.1486 12.7067 86.4073 12.2667 86.7433 11.904C87.0793 11.5413 87.4846 11.2613 87.9593 11.064C88.4393 10.8667 88.9779 10.768 89.5753 10.768ZM89.5753 18C90.3753 18 90.9726 17.7333 91.3673 17.2C91.7619 16.6613 91.9593 15.912 91.9593 14.952C91.9593 13.9867 91.7619 13.2347 91.3673 12.696C90.9726 12.1573 90.3753 11.888 89.5753 11.888C89.1699 11.888 88.8153 11.9573 88.5113 12.096C88.2126 12.2347 87.9619 12.4347 87.7593 12.696C87.5619 12.9573 87.4126 13.28 87.3113 13.664C87.2153 14.0427 87.1673 14.472 87.1673 14.952C87.1673 15.912 87.3646 16.6613 87.7593 17.2C88.1593 17.7333 88.7646 18 89.5753 18ZM100.683 12.52C100.939 11.9653 101.254 11.5333 101.627 11.224C102 10.9093 102.456 10.752 102.995 10.752C103.166 10.752 103.328 10.7707 103.483 10.808C103.643 10.8453 103.784 10.904 103.907 10.984L103.803 12.048C103.771 12.1813 103.691 12.248 103.563 12.248C103.488 12.248 103.379 12.232 103.235 12.2C103.091 12.168 102.928 12.152 102.747 12.152C102.491 12.152 102.262 12.1893 102.059 12.264C101.862 12.3387 101.683 12.4507 101.523 12.6C101.368 12.744 101.227 12.9253 101.099 13.144C100.976 13.3573 100.864 13.6027 100.763 13.88V19H99.3311V10.896H100.147C100.302 10.896 100.408 10.9253 100.467 10.984C100.526 11.0427 100.566 11.144 100.587 11.288L100.683 12.52ZM110.255 14.064C110.255 13.7333 110.207 13.432 110.111 13.16C110.02 12.8827 109.884 12.6453 109.703 12.448C109.527 12.2453 109.311 12.0907 109.055 11.984C108.799 11.872 108.508 11.816 108.183 11.816C107.5 11.816 106.959 12.016 106.559 12.416C106.164 12.8107 105.919 13.36 105.823 14.064H110.255ZM111.407 17.864C111.231 18.0773 111.02 18.264 110.775 18.424C110.53 18.5787 110.266 18.7067 109.983 18.808C109.706 18.9093 109.418 18.984 109.119 19.032C108.82 19.0853 108.524 19.112 108.231 19.112C107.671 19.112 107.154 19.0187 106.679 18.832C106.21 18.64 105.802 18.3627 105.455 18C105.114 17.632 104.847 17.1787 104.655 16.64C104.463 16.1013 104.367 15.4827 104.367 14.784C104.367 14.2187 104.452 13.6907 104.623 13.2C104.799 12.7093 105.05 12.2853 105.375 11.928C105.7 11.5653 106.098 11.2827 106.567 11.08C107.036 10.872 107.564 10.768 108.151 10.768C108.636 10.768 109.084 10.8507 109.495 11.016C109.911 11.176 110.268 11.4107 110.567 11.72C110.871 12.024 111.108 12.4027 111.279 12.856C111.45 13.304 111.535 13.816 111.535 14.392C111.535 14.616 111.511 14.7653 111.463 14.84C111.415 14.9147 111.324 14.952 111.191 14.952H105.775C105.791 15.464 105.86 15.9093 105.983 16.288C106.111 16.6667 106.287 16.984 106.511 17.24C106.735 17.4907 107.002 17.68 107.311 17.808C107.62 17.9307 107.967 17.992 108.351 17.992C108.708 17.992 109.015 17.952 109.271 17.872C109.532 17.7867 109.756 17.696 109.943 17.6C110.13 17.504 110.284 17.416 110.407 17.336C110.535 17.2507 110.644 17.208 110.735 17.208C110.852 17.208 110.943 17.2533 111.007 17.344L111.407 17.864ZM118.924 12.336C118.882 12.3947 118.839 12.44 118.796 12.472C118.754 12.504 118.695 12.52 118.62 12.52C118.54 12.52 118.452 12.488 118.356 12.424C118.26 12.3547 118.14 12.28 117.996 12.2C117.858 12.12 117.684 12.048 117.476 11.984C117.274 11.9147 117.023 11.88 116.724 11.88C116.324 11.88 115.972 11.952 115.668 12.096C115.364 12.2347 115.108 12.4373 114.9 12.704C114.698 12.9707 114.543 13.2933 114.436 13.672C114.335 14.0507 114.284 14.4747 114.284 14.944C114.284 15.4347 114.34 15.872 114.452 16.256C114.564 16.6347 114.722 16.9547 114.924 17.216C115.132 17.472 115.38 17.6693 115.668 17.808C115.962 17.9413 116.29 18.008 116.652 18.008C116.999 18.008 117.284 17.968 117.508 17.888C117.732 17.8027 117.916 17.7093 118.06 17.608C118.21 17.5067 118.332 17.416 118.428 17.336C118.53 17.2507 118.628 17.208 118.724 17.208C118.842 17.208 118.932 17.2533 118.996 17.344L119.396 17.864C119.22 18.0827 119.02 18.2693 118.796 18.424C118.572 18.5787 118.33 18.7093 118.068 18.816C117.812 18.9173 117.543 18.992 117.26 19.04C116.978 19.088 116.69 19.112 116.396 19.112C115.89 19.112 115.418 19.0187 114.98 18.832C114.548 18.6453 114.172 18.376 113.852 18.024C113.532 17.6667 113.282 17.2293 113.1 16.712C112.919 16.1947 112.828 15.6053 112.828 14.944C112.828 14.3413 112.911 13.784 113.076 13.272C113.247 12.76 113.492 12.32 113.812 11.952C114.138 11.5787 114.535 11.288 115.004 11.08C115.479 10.872 116.023 10.768 116.636 10.768C117.207 10.768 117.708 10.8613 118.14 11.048C118.578 11.2293 118.964 11.488 119.3 11.824L118.924 12.336ZM126.208 14.064C126.208 13.7333 126.16 13.432 126.064 13.16C125.974 12.8827 125.838 12.6453 125.656 12.448C125.48 12.2453 125.264 12.0907 125.008 11.984C124.752 11.872 124.462 11.816 124.136 11.816C123.454 11.816 122.912 12.016 122.512 12.416C122.118 12.8107 121.872 13.36 121.776 14.064H126.208ZM127.36 17.864C127.184 18.0773 126.974 18.264 126.728 18.424C126.483 18.5787 126.219 18.7067 125.936 18.808C125.659 18.9093 125.371 18.984 125.072 19.032C124.774 19.0853 124.478 19.112 124.184 19.112C123.624 19.112 123.107 19.0187 122.632 18.832C122.163 18.64 121.755 18.3627 121.408 18C121.067 17.632 120.8 17.1787 120.608 16.64C120.416 16.1013 120.32 15.4827 120.32 14.784C120.32 14.2187 120.406 13.6907 120.576 13.2C120.752 12.7093 121.003 12.2853 121.328 11.928C121.654 11.5653 122.051 11.2827 122.52 11.08C122.99 10.872 123.518 10.768 124.104 10.768C124.59 10.768 125.038 10.8507 125.448 11.016C125.864 11.176 126.222 11.4107 126.52 11.72C126.824 12.024 127.062 12.4027 127.232 12.856C127.403 13.304 127.488 13.816 127.488 14.392C127.488 14.616 127.464 14.7653 127.416 14.84C127.368 14.9147 127.278 14.952 127.144 14.952H121.728C121.744 15.464 121.814 15.9093 121.936 16.288C122.064 16.6667 122.24 16.984 122.464 17.24C122.688 17.4907 122.955 17.68 123.264 17.808C123.574 17.9307 123.92 17.992 124.304 17.992C124.662 17.992 124.968 17.952 125.224 17.872C125.486 17.7867 125.71 17.696 125.896 17.6C126.083 17.504 126.238 17.416 126.36 17.336C126.488 17.2507 126.598 17.208 126.688 17.208C126.806 17.208 126.896 17.2533 126.96 17.344L127.36 17.864ZM130.741 10.896V19H129.317V10.896H130.741ZM131.045 8.352C131.045 8.49067 131.016 8.62133 130.957 8.744C130.904 8.86133 130.829 8.968 130.733 9.064C130.643 9.15467 130.533 9.22667 130.405 9.28C130.283 9.33333 130.152 9.36 130.013 9.36C129.875 9.36 129.744 9.33333 129.621 9.28C129.504 9.22667 129.4 9.15467 129.309 9.064C129.219 8.968 129.147 8.86133 129.093 8.744C129.04 8.62133 129.013 8.49067 129.013 8.352C129.013 8.21333 129.04 8.08267 129.093 7.96C129.147 7.832 129.219 7.72267 129.309 7.632C129.4 7.536 129.504 7.46133 129.621 7.408C129.744 7.35467 129.875 7.328 130.013 7.328C130.152 7.328 130.283 7.35467 130.405 7.408C130.533 7.46133 130.643 7.536 130.733 7.632C130.829 7.72267 130.904 7.832 130.957 7.96C131.016 8.08267 131.045 8.21333 131.045 8.352ZM140.025 10.896L136.721 19H135.441L132.137 10.896H133.297C133.414 10.896 133.51 10.9253 133.585 10.984C133.66 11.0427 133.71 11.112 133.737 11.192L135.793 16.408C135.857 16.6053 135.913 16.7973 135.961 16.984C136.009 17.1707 136.054 17.3573 136.097 17.544C136.14 17.3573 136.185 17.1707 136.233 16.984C136.281 16.7973 136.34 16.6053 136.409 16.408L138.489 11.192C138.521 11.1067 138.574 11.0373 138.649 10.984C138.724 10.9253 138.812 10.896 138.913 10.896H140.025ZM146.536 14.064C146.536 13.7333 146.488 13.432 146.392 13.16C146.302 12.8827 146.166 12.6453 145.984 12.448C145.808 12.2453 145.592 12.0907 145.336 11.984C145.08 11.872 144.79 11.816 144.464 11.816C143.782 11.816 143.24 12.016 142.84 12.416C142.446 12.8107 142.2 13.36 142.104 14.064H146.536ZM147.688 17.864C147.512 18.0773 147.302 18.264 147.056 18.424C146.811 18.5787 146.547 18.7067 146.264 18.808C145.987 18.9093 145.699 18.984 145.4 19.032C145.102 19.0853 144.806 19.112 144.512 19.112C143.952 19.112 143.435 19.0187 142.96 18.832C142.491 18.64 142.083 18.3627 141.736 18C141.395 17.632 141.128 17.1787 140.936 16.64C140.744 16.1013 140.648 15.4827 140.648 14.784C140.648 14.2187 140.734 13.6907 140.904 13.2C141.08 12.7093 141.331 12.2853 141.656 11.928C141.982 11.5653 142.379 11.2827 142.848 11.08C143.318 10.872 143.846 10.768 144.432 10.768C144.918 10.768 145.366 10.8507 145.776 11.016C146.192 11.176 146.55 11.4107 146.848 11.72C147.152 12.024 147.39 12.4027 147.56 12.856C147.731 13.304 147.816 13.816 147.816 14.392C147.816 14.616 147.792 14.7653 147.744 14.84C147.696 14.9147 147.606 14.952 147.472 14.952H142.056C142.072 15.464 142.142 15.9093 142.264 16.288C142.392 16.6667 142.568 16.984 142.792 17.24C143.016 17.4907 143.283 17.68 143.592 17.808C143.902 17.9307 144.248 17.992 144.632 17.992C144.99 17.992 145.296 17.952 145.552 17.872C145.814 17.7867 146.038 17.696 146.224 17.6C146.411 17.504 146.566 17.416 146.688 17.336C146.816 17.2507 146.926 17.208 147.016 17.208C147.134 17.208 147.224 17.2533 147.288 17.344L147.688 17.864ZM159.299 12.336C159.257 12.3947 159.214 12.44 159.171 12.472C159.129 12.504 159.07 12.52 158.995 12.52C158.915 12.52 158.827 12.488 158.731 12.424C158.635 12.3547 158.515 12.28 158.371 12.2C158.233 12.12 158.059 12.048 157.851 11.984C157.649 11.9147 157.398 11.88 157.099 11.88C156.699 11.88 156.347 11.952 156.043 12.096C155.739 12.2347 155.483 12.4373 155.275 12.704C155.073 12.9707 154.918 13.2933 154.811 13.672C154.71 14.0507 154.659 14.4747 154.659 14.944C154.659 15.4347 154.715 15.872 154.827 16.256C154.939 16.6347 155.097 16.9547 155.299 17.216C155.507 17.472 155.755 17.6693 156.043 17.808C156.337 17.9413 156.665 18.008 157.027 18.008C157.374 18.008 157.659 17.968 157.883 17.888C158.107 17.8027 158.291 17.7093 158.435 17.608C158.585 17.5067 158.707 17.416 158.803 17.336C158.905 17.2507 159.003 17.208 159.099 17.208C159.217 17.208 159.307 17.2533 159.371 17.344L159.771 17.864C159.595 18.0827 159.395 18.2693 159.171 18.424C158.947 18.5787 158.705 18.7093 158.443 18.816C158.187 18.9173 157.918 18.992 157.635 19.04C157.353 19.088 157.065 19.112 156.771 19.112C156.265 19.112 155.793 19.0187 155.355 18.832C154.923 18.6453 154.547 18.376 154.227 18.024C153.907 17.6667 153.657 17.2293 153.475 16.712C153.294 16.1947 153.203 15.6053 153.203 14.944C153.203 14.3413 153.286 13.784 153.451 13.272C153.622 12.76 153.867 12.32 154.187 11.952C154.513 11.5787 154.91 11.288 155.379 11.08C155.854 10.872 156.398 10.768 157.011 10.768C157.582 10.768 158.083 10.8613 158.515 11.048C158.953 11.2293 159.339 11.488 159.675 11.824L159.299 12.336ZM164.575 10.768C165.167 10.768 165.701 10.8667 166.175 11.064C166.65 11.2613 167.055 11.5413 167.391 11.904C167.727 12.2667 167.983 12.7067 168.159 13.224C168.341 13.736 168.431 14.3093 168.431 14.944C168.431 15.584 168.341 16.16 168.159 16.672C167.983 17.184 167.727 17.6213 167.391 17.984C167.055 18.3467 166.65 18.6267 166.175 18.824C165.701 19.016 165.167 19.112 164.575 19.112C163.978 19.112 163.439 19.016 162.959 18.824C162.485 18.6267 162.079 18.3467 161.743 17.984C161.407 17.6213 161.149 17.184 160.967 16.672C160.791 16.16 160.703 15.584 160.703 14.944C160.703 14.3093 160.791 13.736 160.967 13.224C161.149 12.7067 161.407 12.2667 161.743 11.904C162.079 11.5413 162.485 11.2613 162.959 11.064C163.439 10.8667 163.978 10.768 164.575 10.768ZM164.575 18C165.375 18 165.973 17.7333 166.367 17.2C166.762 16.6613 166.959 15.912 166.959 14.952C166.959 13.9867 166.762 13.2347 166.367 12.696C165.973 12.1573 165.375 11.888 164.575 11.888C164.17 11.888 163.815 11.9573 163.511 12.096C163.213 12.2347 162.962 12.4347 162.759 12.696C162.562 12.9573 162.413 13.28 162.311 13.664C162.215 14.0427 162.167 14.472 162.167 14.952C162.167 15.912 162.365 16.6613 162.759 17.2C163.159 17.7333 163.765 18 164.575 18ZM170.237 19V10.896H171.093C171.296 10.896 171.421 10.9947 171.469 11.192L171.573 12.024C171.872 11.656 172.208 11.3547 172.581 11.12C172.955 10.8853 173.387 10.768 173.877 10.768C174.421 10.768 174.861 10.92 175.197 11.224C175.539 11.528 175.784 11.9387 175.933 12.456C176.051 12.1627 176.2 11.9093 176.381 11.696C176.568 11.4827 176.776 11.3067 177.005 11.168C177.235 11.0293 177.477 10.928 177.733 10.864C177.995 10.8 178.259 10.768 178.525 10.768C178.952 10.768 179.331 10.8373 179.661 10.976C179.997 11.1093 180.28 11.3067 180.509 11.568C180.744 11.8293 180.923 12.152 181.045 12.536C181.168 12.9147 181.229 13.3493 181.229 13.84V19H179.797V13.84C179.797 13.2053 179.659 12.7253 179.381 12.4C179.104 12.0693 178.704 11.904 178.181 11.904C177.947 11.904 177.723 11.9467 177.509 12.032C177.301 12.112 177.117 12.232 176.957 12.392C176.797 12.552 176.669 12.7547 176.573 13C176.483 13.24 176.437 13.52 176.437 13.84V19H175.005V13.84C175.005 13.1893 174.875 12.704 174.613 12.384C174.352 12.064 173.971 11.904 173.469 11.904C173.117 11.904 172.792 12 172.493 12.192C172.195 12.3787 171.92 12.6347 171.669 12.96V19H170.237ZM183.394 19V10.896H184.25C184.452 10.896 184.578 10.9947 184.626 11.192L184.73 12.024C185.028 11.656 185.364 11.3547 185.738 11.12C186.111 10.8853 186.543 10.768 187.034 10.768C187.578 10.768 188.018 10.92 188.354 11.224C188.695 11.528 188.94 11.9387 189.09 12.456C189.207 12.1627 189.356 11.9093 189.538 11.696C189.724 11.4827 189.932 11.3067 190.162 11.168C190.391 11.0293 190.634 10.928 190.89 10.864C191.151 10.8 191.415 10.768 191.682 10.768C192.108 10.768 192.487 10.8373 192.818 10.976C193.154 11.1093 193.436 11.3067 193.666 11.568C193.9 11.8293 194.079 12.152 194.202 12.536C194.324 12.9147 194.386 13.3493 194.386 13.84V19H192.954V13.84C192.954 13.2053 192.815 12.7253 192.538 12.4C192.26 12.0693 191.86 11.904 191.338 11.904C191.103 11.904 190.879 11.9467 190.666 12.032C190.458 12.112 190.274 12.232 190.114 12.392C189.954 12.552 189.826 12.7547 189.73 13C189.639 13.24 189.594 13.52 189.594 13.84V19H188.162V13.84C188.162 13.1893 188.031 12.704 187.77 12.384C187.508 12.064 187.127 11.904 186.626 11.904C186.274 11.904 185.948 12 185.65 12.192C185.351 12.3787 185.076 12.6347 184.826 12.96V19H183.394ZM203.214 10.896V19H202.366C202.163 19 202.035 18.9013 201.982 18.704L201.87 17.832C201.518 18.2213 201.123 18.536 200.686 18.776C200.249 19.0107 199.747 19.128 199.182 19.128C198.739 19.128 198.347 19.056 198.006 18.912C197.67 18.7627 197.387 18.5547 197.158 18.288C196.929 18.0213 196.755 17.6987 196.638 17.32C196.526 16.9413 196.47 16.5227 196.47 16.064V10.896H197.894V16.064C197.894 16.6773 198.033 17.152 198.31 17.488C198.593 17.824 199.022 17.992 199.598 17.992C200.019 17.992 200.411 17.8933 200.774 17.696C201.142 17.4933 201.481 17.216 201.79 16.864V10.896H203.214ZM206.816 12.072C206.992 11.8747 207.178 11.696 207.376 11.536C207.573 11.376 207.781 11.24 208 11.128C208.224 11.0107 208.458 10.9227 208.704 10.864C208.954 10.8 209.224 10.768 209.512 10.768C209.954 10.768 210.344 10.8427 210.68 10.992C211.021 11.136 211.304 11.344 211.528 11.616C211.757 11.8827 211.93 12.2053 212.048 12.584C212.165 12.9627 212.224 13.3813 212.224 13.84V19H210.792V13.84C210.792 13.2267 210.65 12.752 210.368 12.416C210.09 12.0747 209.666 11.904 209.096 11.904C208.674 11.904 208.28 12.0053 207.912 12.208C207.549 12.4107 207.213 12.6853 206.904 13.032V19H205.472V10.896H206.328C206.53 10.896 206.656 10.9947 206.704 11.192L206.816 12.072ZM215.898 10.896V19H214.474V10.896H215.898ZM216.202 8.352C216.202 8.49067 216.172 8.62133 216.114 8.744C216.06 8.86133 215.986 8.968 215.89 9.064C215.799 9.15467 215.69 9.22667 215.562 9.28C215.439 9.33333 215.308 9.36 215.17 9.36C215.031 9.36 214.9 9.33333 214.778 9.28C214.66 9.22667 214.556 9.15467 214.466 9.064C214.375 8.968 214.303 8.86133 214.25 8.744C214.196 8.62133 214.17 8.49067 214.17 8.352C214.17 8.21333 214.196 8.08267 214.25 7.96C214.303 7.832 214.375 7.72267 214.466 7.632C214.556 7.536 214.66 7.46133 214.778 7.408C214.9 7.35467 215.031 7.328 215.17 7.328C215.308 7.328 215.439 7.35467 215.562 7.408C215.69 7.46133 215.799 7.536 215.89 7.632C215.986 7.72267 216.06 7.832 216.114 7.96C216.172 8.08267 216.202 8.21333 216.202 8.352ZM223.877 12.336C223.835 12.3947 223.792 12.44 223.749 12.472C223.707 12.504 223.648 12.52 223.573 12.52C223.493 12.52 223.405 12.488 223.309 12.424C223.213 12.3547 223.093 12.28 222.949 12.2C222.811 12.12 222.637 12.048 222.429 11.984C222.227 11.9147 221.976 11.88 221.677 11.88C221.277 11.88 220.925 11.952 220.621 12.096C220.317 12.2347 220.061 12.4373 219.853 12.704C219.651 12.9707 219.496 13.2933 219.389 13.672C219.288 14.0507 219.237 14.4747 219.237 14.944C219.237 15.4347 219.293 15.872 219.405 16.256C219.517 16.6347 219.675 16.9547 219.877 17.216C220.085 17.472 220.333 17.6693 220.621 17.808C220.915 17.9413 221.243 18.008 221.605 18.008C221.952 18.008 222.237 17.968 222.461 17.888C222.685 17.8027 222.869 17.7093 223.013 17.608C223.163 17.5067 223.285 17.416 223.381 17.336C223.483 17.2507 223.581 17.208 223.677 17.208C223.795 17.208 223.885 17.2533 223.949 17.344L224.349 17.864C224.173 18.0827 223.973 18.2693 223.749 18.424C223.525 18.5787 223.283 18.7093 223.021 18.816C222.765 18.9173 222.496 18.992 222.213 19.04C221.931 19.088 221.643 19.112 221.349 19.112C220.843 19.112 220.371 19.0187 219.933 18.832C219.501 18.6453 219.125 18.376 218.805 18.024C218.485 17.6667 218.235 17.2293 218.053 16.712C217.872 16.1947 217.781 15.6053 217.781 14.944C217.781 14.3413 217.864 13.784 218.029 13.272C218.2 12.76 218.445 12.32 218.765 11.952C219.091 11.5787 219.488 11.288 219.957 11.08C220.432 10.872 220.976 10.768 221.589 10.768C222.16 10.768 222.661 10.8613 223.093 11.048C223.531 11.2293 223.917 11.488 224.253 11.824L223.877 12.336ZM230.27 15.352C229.614 15.3733 229.054 15.4267 228.59 15.512C228.131 15.592 227.755 15.6987 227.462 15.832C227.174 15.9653 226.963 16.1227 226.83 16.304C226.702 16.4853 226.638 16.688 226.638 16.912C226.638 17.1253 226.673 17.3093 226.742 17.464C226.811 17.6187 226.905 17.7467 227.022 17.848C227.145 17.944 227.286 18.016 227.446 18.064C227.611 18.1067 227.787 18.128 227.974 18.128C228.225 18.128 228.454 18.104 228.662 18.056C228.87 18.0027 229.065 17.928 229.246 17.832C229.433 17.736 229.609 17.6213 229.774 17.488C229.945 17.3547 230.11 17.2027 230.27 17.032V15.352ZM225.67 12.04C226.118 11.608 226.601 11.2853 227.118 11.072C227.635 10.8587 228.209 10.752 228.838 10.752C229.291 10.752 229.694 10.8267 230.046 10.976C230.398 11.1253 230.694 11.3333 230.934 11.6C231.174 11.8667 231.355 12.1893 231.478 12.568C231.601 12.9467 231.662 13.3627 231.662 13.816V19H231.03C230.891 19 230.785 18.9787 230.71 18.936C230.635 18.888 230.577 18.7973 230.534 18.664L230.374 17.896C230.161 18.0933 229.953 18.2693 229.75 18.424C229.547 18.5733 229.334 18.7013 229.11 18.808C228.886 18.9093 228.646 18.9867 228.39 19.04C228.139 19.0987 227.859 19.128 227.55 19.128C227.235 19.128 226.939 19.0853 226.662 19C226.385 18.9093 226.142 18.776 225.934 18.6C225.731 18.424 225.569 18.2027 225.446 17.936C225.329 17.664 225.27 17.344 225.27 16.976C225.27 16.656 225.358 16.3493 225.534 16.056C225.71 15.7573 225.995 15.4933 226.39 15.264C226.785 15.0347 227.299 14.848 227.934 14.704C228.569 14.5547 229.347 14.4693 230.27 14.448V13.816C230.27 13.1867 230.134 12.712 229.862 12.392C229.59 12.0667 229.193 11.904 228.67 11.904C228.318 11.904 228.022 11.9493 227.782 12.04C227.547 12.1253 227.342 12.224 227.166 12.336C226.995 12.4427 226.846 12.5413 226.718 12.632C226.595 12.7173 226.473 12.76 226.35 12.76C226.254 12.76 226.171 12.736 226.102 12.688C226.033 12.6347 225.974 12.5707 225.926 12.496L225.67 12.04ZM241.242 19H239.818V12.088H235.642V16.952C235.642 17.2933 235.724 17.5467 235.89 17.712C236.055 17.8773 236.268 17.96 236.53 17.96C236.679 17.96 236.807 17.9413 236.914 17.904C237.026 17.8613 237.122 17.816 237.202 17.768C237.282 17.72 237.348 17.6773 237.402 17.64C237.46 17.5973 237.511 17.576 237.554 17.576C237.628 17.576 237.695 17.6213 237.754 17.712L238.17 18.392C237.924 18.6213 237.628 18.8027 237.282 18.936C236.935 19.064 236.578 19.128 236.21 19.128C235.57 19.128 235.076 18.9493 234.73 18.592C234.388 18.2347 234.218 17.72 234.218 17.048V12.088H233.242C233.156 12.088 233.084 12.064 233.026 12.016C232.967 11.9627 232.938 11.8827 232.938 11.776V11.208L234.266 11.032L234.594 8.536C234.61 8.456 234.644 8.392 234.698 8.344C234.756 8.29067 234.831 8.264 234.922 8.264H235.642V11.056H241.242V19ZM241.594 8.296C241.594 8.43467 241.564 8.56533 241.506 8.688C241.452 8.80533 241.378 8.90933 241.282 9C241.191 9.09067 241.084 9.16267 240.962 9.216C240.839 9.26933 240.708 9.296 240.57 9.296C240.431 9.296 240.3 9.26933 240.178 9.216C240.06 9.16267 239.956 9.09067 239.866 9C239.775 8.90933 239.703 8.80533 239.65 8.688C239.596 8.56533 239.57 8.43467 239.57 8.296C239.57 8.15733 239.596 8.02667 239.65 7.904C239.703 7.776 239.775 7.66667 239.866 7.576C239.956 7.48 240.06 7.40533 240.178 7.352C240.3 7.29867 240.431 7.272 240.57 7.272C240.708 7.272 240.839 7.29867 240.962 7.352C241.084 7.40533 241.191 7.48 241.282 7.576C241.378 7.66667 241.452 7.776 241.506 7.904C241.564 8.02667 241.594 8.15733 241.594 8.296ZM246.997 10.768C247.589 10.768 248.122 10.8667 248.597 11.064C249.072 11.2613 249.477 11.5413 249.813 11.904C250.149 12.2667 250.405 12.7067 250.581 13.224C250.762 13.736 250.853 14.3093 250.853 14.944C250.853 15.584 250.762 16.16 250.581 16.672C250.405 17.184 250.149 17.6213 249.813 17.984C249.477 18.3467 249.072 18.6267 248.597 18.824C248.122 19.016 247.589 19.112 246.997 19.112C246.4 19.112 245.861 19.016 245.381 18.824C244.906 18.6267 244.501 18.3467 244.165 17.984C243.829 17.6213 243.57 17.184 243.389 16.672C243.213 16.16 243.125 15.584 243.125 14.944C243.125 14.3093 243.213 13.736 243.389 13.224C243.57 12.7067 243.829 12.2667 244.165 11.904C244.501 11.5413 244.906 11.2613 245.381 11.064C245.861 10.8667 246.4 10.768 246.997 10.768ZM246.997 18C247.797 18 248.394 17.7333 248.789 17.2C249.184 16.6613 249.381 15.912 249.381 14.952C249.381 13.9867 249.184 13.2347 248.789 12.696C248.394 12.1573 247.797 11.888 246.997 11.888C246.592 11.888 246.237 11.9573 245.933 12.096C245.634 12.2347 245.384 12.4347 245.181 12.696C244.984 12.9573 244.834 13.28 244.733 13.664C244.637 14.0427 244.589 14.472 244.589 14.952C244.589 15.912 244.786 16.6613 245.181 17.2C245.581 17.7333 246.186 18 246.997 18ZM254.003 12.072C254.179 11.8747 254.366 11.696 254.563 11.536C254.761 11.376 254.969 11.24 255.187 11.128C255.411 11.0107 255.646 10.9227 255.891 10.864C256.142 10.8 256.411 10.768 256.699 10.768C257.142 10.768 257.531 10.8427 257.867 10.992C258.209 11.136 258.491 11.344 258.715 11.616C258.945 11.8827 259.118 12.2053 259.235 12.584C259.353 12.9627 259.411 13.3813 259.411 13.84V19H257.979V13.84C257.979 13.2267 257.838 12.752 257.555 12.416C257.278 12.0747 256.854 11.904 256.283 11.904C255.862 11.904 255.467 12.0053 255.099 12.208C254.737 12.4107 254.401 12.6853 254.091 13.032V19H252.659V10.896H253.515C253.718 10.896 253.843 10.9947 253.891 11.192L254.003 12.072ZM266.301 12.232C266.237 12.3493 266.138 12.408 266.005 12.408C265.925 12.408 265.834 12.3787 265.733 12.32C265.632 12.2613 265.506 12.1973 265.357 12.128C265.213 12.0533 265.04 11.9867 264.837 11.928C264.634 11.864 264.394 11.832 264.117 11.832C263.877 11.832 263.661 11.864 263.469 11.928C263.277 11.9867 263.112 12.0693 262.973 12.176C262.84 12.2827 262.736 12.408 262.661 12.552C262.592 12.6907 262.557 12.8427 262.557 13.008C262.557 13.216 262.616 13.3893 262.733 13.528C262.856 13.6667 263.016 13.7867 263.213 13.888C263.41 13.9893 263.634 14.08 263.885 14.16C264.136 14.2347 264.392 14.3173 264.653 14.408C264.92 14.4933 265.178 14.5893 265.429 14.696C265.68 14.8027 265.904 14.936 266.101 15.096C266.298 15.256 266.456 15.4533 266.573 15.688C266.696 15.9173 266.757 16.1947 266.757 16.52C266.757 16.8933 266.69 17.24 266.557 17.56C266.424 17.8747 266.226 18.1493 265.965 18.384C265.704 18.6133 265.384 18.7947 265.005 18.928C264.626 19.0613 264.189 19.128 263.693 19.128C263.128 19.128 262.616 19.0373 262.157 18.856C261.698 18.6693 261.309 18.432 260.989 18.144L261.325 17.6C261.368 17.5307 261.418 17.4773 261.477 17.44C261.536 17.4027 261.61 17.384 261.701 17.384C261.797 17.384 261.898 17.4213 262.005 17.496C262.112 17.5707 262.24 17.6533 262.389 17.744C262.544 17.8347 262.73 17.9173 262.949 17.992C263.168 18.0667 263.44 18.104 263.765 18.104C264.042 18.104 264.285 18.0693 264.493 18C264.701 17.9253 264.874 17.8267 265.013 17.704C265.152 17.5813 265.253 17.44 265.317 17.28C265.386 17.12 265.421 16.9493 265.421 16.768C265.421 16.544 265.36 16.36 265.237 16.216C265.12 16.0667 264.962 15.9413 264.765 15.84C264.568 15.7333 264.341 15.6427 264.085 15.568C263.834 15.488 263.576 15.4053 263.309 15.32C263.048 15.2347 262.789 15.1387 262.533 15.032C262.282 14.92 262.058 14.7813 261.861 14.616C261.664 14.4507 261.504 14.248 261.381 14.008C261.264 13.7627 261.205 13.4667 261.205 13.12C261.205 12.8107 261.269 12.5147 261.397 12.232C261.525 11.944 261.712 11.6933 261.957 11.48C262.202 11.2613 262.504 11.088 262.861 10.96C263.218 10.832 263.626 10.768 264.085 10.768C264.618 10.768 265.096 10.8533 265.517 11.024C265.944 11.1893 266.312 11.4187 266.621 11.712L266.301 12.232ZM273.125 19V12.112L272.229 12.008C272.117 11.9813 272.023 11.9413 271.949 11.888C271.879 11.8293 271.845 11.7467 271.845 11.64V11.056H273.125V10.272C273.125 9.808 273.189 9.39733 273.317 9.04C273.45 8.67733 273.637 8.37333 273.877 8.128C274.122 7.87733 274.415 7.688 274.757 7.56C275.098 7.432 275.482 7.368 275.909 7.368C276.271 7.368 276.605 7.42133 276.909 7.528L276.877 8.24C276.866 8.368 276.794 8.43733 276.661 8.448C276.533 8.45867 276.359 8.464 276.141 8.464C275.895 8.464 275.671 8.496 275.469 8.56C275.271 8.624 275.101 8.728 274.957 8.872C274.813 9.016 274.701 9.20533 274.621 9.44C274.546 9.67467 274.509 9.96533 274.509 10.312V11.056H276.845V12.088H274.557V19H273.125ZM279.558 12.52C279.814 11.9653 280.129 11.5333 280.502 11.224C280.875 10.9093 281.331 10.752 281.87 10.752C282.041 10.752 282.203 10.7707 282.358 10.808C282.518 10.8453 282.659 10.904 282.782 10.984L282.678 12.048C282.646 12.1813 282.566 12.248 282.438 12.248C282.363 12.248 282.254 12.232 282.11 12.2C281.966 12.168 281.803 12.152 281.622 12.152C281.366 12.152 281.137 12.1893 280.934 12.264C280.737 12.3387 280.558 12.4507 280.398 12.6C280.243 12.744 280.102 12.9253 279.974 13.144C279.851 13.3573 279.739 13.6027 279.638 13.88V19H278.206V10.896H279.022C279.177 10.896 279.283 10.9253 279.342 10.984C279.401 11.0427 279.441 11.144 279.462 11.288L279.558 12.52ZM287.122 10.768C287.714 10.768 288.247 10.8667 288.722 11.064C289.197 11.2613 289.602 11.5413 289.938 11.904C290.274 12.2667 290.53 12.7067 290.706 13.224C290.887 13.736 290.978 14.3093 290.978 14.944C290.978 15.584 290.887 16.16 290.706 16.672C290.53 17.184 290.274 17.6213 289.938 17.984C289.602 18.3467 289.197 18.6267 288.722 18.824C288.247 19.016 287.714 19.112 287.122 19.112C286.525 19.112 285.986 19.016 285.506 18.824C285.031 18.6267 284.626 18.3467 284.29 17.984C283.954 17.6213 283.695 17.184 283.514 16.672C283.338 16.16 283.25 15.584 283.25 14.944C283.25 14.3093 283.338 13.736 283.514 13.224C283.695 12.7067 283.954 12.2667 284.29 11.904C284.626 11.5413 285.031 11.2613 285.506 11.064C285.986 10.8667 286.525 10.768 287.122 10.768ZM287.122 18C287.922 18 288.519 17.7333 288.914 17.2C289.309 16.6613 289.506 15.912 289.506 14.952C289.506 13.9867 289.309 13.2347 288.914 12.696C288.519 12.1573 287.922 11.888 287.122 11.888C286.717 11.888 286.362 11.9573 286.058 12.096C285.759 12.2347 285.509 12.4347 285.306 12.696C285.109 12.9573 284.959 13.28 284.858 13.664C284.762 14.0427 284.714 14.472 284.714 14.952C284.714 15.912 284.911 16.6613 285.306 17.2C285.706 17.7333 286.311 18 287.122 18ZM292.784 19V10.896H293.64C293.843 10.896 293.968 10.9947 294.016 11.192L294.12 12.024C294.419 11.656 294.755 11.3547 295.128 11.12C295.502 10.8853 295.934 10.768 296.424 10.768C296.968 10.768 297.408 10.92 297.744 11.224C298.086 11.528 298.331 11.9387 298.48 12.456C298.598 12.1627 298.747 11.9093 298.928 11.696C299.115 11.4827 299.323 11.3067 299.552 11.168C299.782 11.0293 300.024 10.928 300.28 10.864C300.542 10.8 300.806 10.768 301.072 10.768C301.499 10.768 301.878 10.8373 302.208 10.976C302.544 11.1093 302.827 11.3067 303.056 11.568C303.291 11.8293 303.47 12.152 303.592 12.536C303.715 12.9147 303.776 13.3493 303.776 13.84V19H302.344V13.84C302.344 13.2053 302.206 12.7253 301.928 12.4C301.651 12.0693 301.251 11.904 300.728 11.904C300.494 11.904 300.27 11.9467 300.056 12.032C299.848 12.112 299.664 12.232 299.504 12.392C299.344 12.552 299.216 12.7547 299.12 13C299.03 13.24 298.984 13.52 298.984 13.84V19H297.552V13.84C297.552 13.1893 297.422 12.704 297.16 12.384C296.899 12.064 296.518 11.904 296.016 11.904C295.664 11.904 295.339 12 295.04 12.192C294.742 12.3787 294.467 12.6347 294.216 12.96V19H292.784ZM37.512 42.632C37.5973 42.632 37.672 42.6667 37.736 42.736L38.352 43.4C37.8827 43.944 37.312 44.368 36.64 44.672C35.9733 44.976 35.1653 45.128 34.216 45.128C33.3947 45.128 32.648 44.9867 31.976 44.704C31.304 44.416 30.7307 44.016 30.256 43.504C29.7813 42.9867 29.4133 42.368 29.152 41.648C28.8907 40.928 28.76 40.136 28.76 39.272C28.76 38.408 28.896 37.616 29.168 36.896C29.44 36.176 29.8213 35.5573 30.312 35.04C30.808 34.5227 31.4 34.1227 32.088 33.84C32.776 33.552 33.536 33.408 34.368 33.408C35.184 33.408 35.904 33.5387 36.528 33.8C37.152 34.0613 37.7013 34.416 38.176 34.864L37.664 35.576C37.632 35.6293 37.5893 35.6747 37.536 35.712C37.488 35.744 37.4213 35.76 37.336 35.76C37.24 35.76 37.1227 35.7093 36.984 35.608C36.8453 35.5013 36.664 35.384 36.44 35.256C36.216 35.128 35.936 35.0133 35.6 34.912C35.264 34.8053 34.8507 34.752 34.36 34.752C33.768 34.752 33.2267 34.856 32.736 35.064C32.2453 35.2667 31.8213 35.5627 31.464 35.952C31.112 36.3413 30.8373 36.816 30.64 37.376C30.4427 37.936 30.344 38.568 30.344 39.272C30.344 39.9867 30.4453 40.624 30.648 41.184C30.856 41.744 31.136 42.2187 31.488 42.608C31.8453 42.992 32.264 43.2853 32.744 43.488C33.2293 43.6907 33.752 43.792 34.312 43.792C34.6533 43.792 34.96 43.7733 35.232 43.736C35.5093 43.6933 35.7627 43.6293 35.992 43.544C36.2267 43.4587 36.4427 43.352 36.64 43.224C36.8427 43.0907 37.0427 42.9333 37.24 42.752C37.3307 42.672 37.4213 42.632 37.512 42.632ZM41.1206 38.52C41.3766 37.9653 41.6913 37.5333 42.0646 37.224C42.438 36.9093 42.894 36.752 43.4326 36.752C43.6033 36.752 43.766 36.7707 43.9206 36.808C44.0806 36.8453 44.222 36.904 44.3446 36.984L44.2406 38.048C44.2086 38.1813 44.1286 38.248 44.0006 38.248C43.926 38.248 43.8166 38.232 43.6726 38.2C43.5286 38.168 43.366 38.152 43.1846 38.152C42.9286 38.152 42.6993 38.1893 42.4966 38.264C42.2993 38.3387 42.1206 38.4507 41.9606 38.6C41.806 38.744 41.6646 38.9253 41.5366 39.144C41.414 39.3573 41.302 39.6027 41.2006 39.88V45H39.7686V36.896H40.5846C40.7393 36.896 40.846 36.9253 40.9046 36.984C40.9633 37.0427 41.0033 37.144 41.0246 37.288L41.1206 38.52ZM50.6926 40.064C50.6926 39.7333 50.6446 39.432 50.5486 39.16C50.458 38.8827 50.322 38.6453 50.1406 38.448C49.9646 38.2453 49.7486 38.0907 49.4926 37.984C49.2366 37.872 48.946 37.816 48.6206 37.816C47.938 37.816 47.3966 38.016 46.9966 38.416C46.602 38.8107 46.3566 39.36 46.2606 40.064H50.6926ZM51.8446 43.864C51.6686 44.0773 51.458 44.264 51.2126 44.424C50.9673 44.5787 50.7033 44.7067 50.4206 44.808C50.1433 44.9093 49.8553 44.984 49.5566 45.032C49.258 45.0853 48.962 45.112 48.6686 45.112C48.1086 45.112 47.5913 45.0187 47.1166 44.832C46.6473 44.64 46.2393 44.3627 45.8926 44C45.5513 43.632 45.2846 43.1787 45.0926 42.64C44.9006 42.1013 44.8046 41.4827 44.8046 40.784C44.8046 40.2187 44.89 39.6907 45.0606 39.2C45.2366 38.7093 45.4873 38.2853 45.8126 37.928C46.138 37.5653 46.5353 37.2827 47.0046 37.08C47.474 36.872 48.002 36.768 48.5886 36.768C49.074 36.768 49.522 36.8507 49.9326 37.016C50.3486 37.176 50.706 37.4107 51.0046 37.72C51.3086 38.024 51.546 38.4027 51.7166 38.856C51.8873 39.304 51.9726 39.816 51.9726 40.392C51.9726 40.616 51.9486 40.7653 51.9006 40.84C51.8526 40.9147 51.762 40.952 51.6286 40.952H46.2126C46.2286 41.464 46.298 41.9093 46.4206 42.288C46.5486 42.6667 46.7246 42.984 46.9486 43.24C47.1726 43.4907 47.4393 43.68 47.7486 43.808C48.058 43.9307 48.4046 43.992 48.7886 43.992C49.146 43.992 49.4526 43.952 49.7086 43.872C49.97 43.7867 50.194 43.696 50.3806 43.6C50.5673 43.504 50.722 43.416 50.8446 43.336C50.9726 43.2507 51.082 43.208 51.1726 43.208C51.29 43.208 51.3806 43.2533 51.4446 43.344L51.8446 43.864ZM58.1138 41.352C57.4578 41.3733 56.8978 41.4267 56.4338 41.512C55.9751 41.592 55.5991 41.6987 55.3058 41.832C55.0178 41.9653 54.8071 42.1227 54.6738 42.304C54.5458 42.4853 54.4818 42.688 54.4818 42.912C54.4818 43.1253 54.5164 43.3093 54.5858 43.464C54.6551 43.6187 54.7484 43.7467 54.8658 43.848C54.9884 43.944 55.1298 44.016 55.2898 44.064C55.4551 44.1067 55.6311 44.128 55.8178 44.128C56.0684 44.128 56.2978 44.104 56.5058 44.056C56.7138 44.0027 56.9084 43.928 57.0898 43.832C57.2764 43.736 57.4524 43.6213 57.6178 43.488C57.7884 43.3547 57.9538 43.2027 58.1138 43.032V41.352ZM53.5138 38.04C53.9618 37.608 54.4444 37.2853 54.9618 37.072C55.4791 36.8587 56.0524 36.752 56.6818 36.752C57.1351 36.752 57.5378 36.8267 57.8898 36.976C58.2418 37.1253 58.5378 37.3333 58.7778 37.6C59.0178 37.8667 59.1991 38.1893 59.3218 38.568C59.4444 38.9467 59.5058 39.3627 59.5058 39.816V45H58.8738C58.7351 45 58.6284 44.9787 58.5538 44.936C58.4791 44.888 58.4204 44.7973 58.3778 44.664L58.2178 43.896C58.0044 44.0933 57.7964 44.2693 57.5938 44.424C57.3911 44.5733 57.1778 44.7013 56.9538 44.808C56.7298 44.9093 56.4898 44.9867 56.2338 45.04C55.9831 45.0987 55.7031 45.128 55.3938 45.128C55.0791 45.128 54.7831 45.0853 54.5058 45C54.2284 44.9093 53.9858 44.776 53.7778 44.6C53.5751 44.424 53.4124 44.2027 53.2898 43.936C53.1724 43.664 53.1138 43.344 53.1138 42.976C53.1138 42.656 53.2018 42.3493 53.3778 42.056C53.5538 41.7573 53.8391 41.4933 54.2338 41.264C54.6284 41.0347 55.1431 40.848 55.7778 40.704C56.4124 40.5547 57.1911 40.4693 58.1138 40.448V39.816C58.1138 39.1867 57.9778 38.712 57.7058 38.392C57.4338 38.0667 57.0364 37.904 56.5138 37.904C56.1618 37.904 55.8658 37.9493 55.6258 38.04C55.3911 38.1253 55.1858 38.224 55.0098 38.336C54.8391 38.4427 54.6898 38.5413 54.5618 38.632C54.4391 38.7173 54.3164 38.76 54.1938 38.76C54.0978 38.76 54.0151 38.736 53.9458 38.688C53.8764 38.6347 53.8178 38.5707 53.7697 38.496L53.5138 38.04ZM64.0535 45.128C63.4135 45.128 62.9202 44.9493 62.5735 44.592C62.2322 44.2347 62.0615 43.72 62.0615 43.048V38.088H61.0855C61.0002 38.088 60.9282 38.064 60.8695 38.016C60.8108 37.9627 60.7815 37.8827 60.7815 37.776V37.208L62.1095 37.04L62.4375 34.536C62.4535 34.456 62.4882 34.392 62.5415 34.344C62.6002 34.2907 62.6748 34.264 62.7655 34.264H63.4855V37.056H65.8295V38.088H63.4855V42.952C63.4855 43.2933 63.5682 43.5467 63.7335 43.712C63.8988 43.8773 64.1122 43.96 64.3735 43.96C64.5228 43.96 64.6508 43.9413 64.7575 43.904C64.8695 43.8613 64.9655 43.816 65.0455 43.768C65.1255 43.72 65.1922 43.6773 65.2455 43.64C65.3042 43.5973 65.3548 43.576 65.3975 43.576C65.4722 43.576 65.5388 43.6213 65.5975 43.712L66.0135 44.392C65.7682 44.6213 65.4722 44.8027 65.1255 44.936C64.7788 45.064 64.4215 45.128 64.0535 45.128ZM72.677 40.064C72.677 39.7333 72.629 39.432 72.533 39.16C72.4423 38.8827 72.3063 38.6453 72.125 38.448C71.949 38.2453 71.733 38.0907 71.477 37.984C71.221 37.872 70.9303 37.816 70.605 37.816C69.9223 37.816 69.381 38.016 68.981 38.416C68.5863 38.8107 68.341 39.36 68.245 40.064H72.677ZM73.829 43.864C73.653 44.0773 73.4423 44.264 73.197 44.424C72.9517 44.5787 72.6877 44.7067 72.405 44.808C72.1277 44.9093 71.8397 44.984 71.541 45.032C71.2423 45.0853 70.9463 45.112 70.653 45.112C70.093 45.112 69.5757 45.0187 69.101 44.832C68.6317 44.64 68.2237 44.3627 67.877 44C67.5357 43.632 67.269 43.1787 67.077 42.64C66.885 42.1013 66.789 41.4827 66.789 40.784C66.789 40.2187 66.8743 39.6907 67.045 39.2C67.221 38.7093 67.4717 38.2853 67.797 37.928C68.1223 37.5653 68.5197 37.2827 68.989 37.08C69.4583 36.872 69.9863 36.768 70.573 36.768C71.0583 36.768 71.5063 36.8507 71.917 37.016C72.333 37.176 72.6903 37.4107 72.989 37.72C73.293 38.024 73.5303 38.4027 73.701 38.856C73.8717 39.304 73.957 39.816 73.957 40.392C73.957 40.616 73.933 40.7653 73.885 40.84C73.837 40.9147 73.7463 40.952 73.613 40.952H68.197C68.213 41.464 68.2823 41.9093 68.405 42.288C68.533 42.6667 68.709 42.984 68.933 43.24C69.157 43.4907 69.4237 43.68 69.733 43.808C70.0423 43.9307 70.389 43.992 70.773 43.992C71.1303 43.992 71.437 43.952 71.693 43.872C71.9543 43.7867 72.1783 43.696 72.365 43.6C72.5517 43.504 72.7063 43.416 72.829 43.336C72.957 43.2507 73.0663 43.208 73.157 43.208C73.2743 43.208 73.365 43.2533 73.429 43.344L73.829 43.864ZM82.2528 45H80.8848C80.7674 45 80.6741 44.9707 80.6048 44.912C80.5408 44.848 80.4874 44.7787 80.4448 44.704L78.4048 41.528C78.3834 41.6027 78.3594 41.6773 78.3328 41.752C78.3114 41.8213 78.2794 41.8853 78.2368 41.944L76.3488 44.704C76.2954 44.7787 76.2368 44.848 76.1728 44.912C76.1141 44.9707 76.0314 45 75.9248 45H74.6528L77.4928 40.84L74.7648 36.896H76.1328C76.2501 36.896 76.3354 36.9147 76.3888 36.952C76.4421 36.9893 76.4901 37.0427 76.5328 37.112L78.5248 40.152C78.5674 39.9973 78.6341 39.848 78.7248 39.704L80.4688 37.144C80.5168 37.0693 80.5674 37.0107 80.6208 36.968C80.6794 36.92 80.7488 36.896 80.8288 36.896H82.1408L79.4128 40.768L82.2528 45ZM98.5873 39.272C98.5873 40.1307 98.4513 40.92 98.1793 41.64C97.9073 42.3547 97.5233 42.9707 97.0273 43.488C96.5313 44.0053 95.9339 44.408 95.2353 44.696C94.5419 44.9787 93.7739 45.12 92.9313 45.12C92.0886 45.12 91.3206 44.9787 90.6273 44.696C89.9339 44.408 89.3393 44.0053 88.8433 43.488C88.3473 42.9707 87.9633 42.3547 87.6913 41.64C87.4193 40.92 87.2833 40.1307 87.2833 39.272C87.2833 38.4133 87.4193 37.6267 87.6913 36.912C87.9633 36.192 88.3473 35.5733 88.8433 35.056C89.3393 34.5333 89.9339 34.128 90.6273 33.84C91.3206 33.552 92.0886 33.408 92.9313 33.408C93.7739 33.408 94.5419 33.552 95.2353 33.84C95.9339 34.128 96.5313 34.5333 97.0273 35.056C97.5233 35.5733 97.9073 36.192 98.1793 36.912C98.4513 37.6267 98.5873 38.4133 98.5873 39.272ZM96.9953 39.272C96.9953 38.568 96.8993 37.936 96.7073 37.376C96.5153 36.816 96.2433 36.344 95.8913 35.96C95.5393 35.5707 95.1126 35.272 94.6112 35.064C94.1099 34.856 93.5499 34.752 92.9313 34.752C92.3179 34.752 91.7606 34.856 91.2593 35.064C90.7579 35.272 90.3286 35.5707 89.9713 35.96C89.6193 36.344 89.3473 36.816 89.1553 37.376C88.9633 37.936 88.8673 38.568 88.8673 39.272C88.8673 39.976 88.9633 40.608 89.1553 41.168C89.3473 41.7227 89.6193 42.1947 89.9713 42.584C90.3286 42.968 90.7579 43.264 91.2593 43.472C91.7606 43.6747 92.3179 43.776 92.9313 43.776C93.5499 43.776 94.1099 43.6747 94.6112 43.472C95.1126 43.264 95.5393 42.968 95.8913 42.584C96.2433 42.1947 96.5153 41.7227 96.7073 41.168C96.8993 40.608 96.9953 39.976 96.9953 39.272ZM101.66 38.072C101.836 37.8747 102.022 37.696 102.22 37.536C102.417 37.376 102.625 37.24 102.844 37.128C103.068 37.0107 103.302 36.9227 103.548 36.864C103.798 36.8 104.068 36.768 104.356 36.768C104.798 36.768 105.188 36.8427 105.524 36.992C105.865 37.136 106.148 37.344 106.372 37.616C106.601 37.8827 106.774 38.2053 106.892 38.584C107.009 38.9627 107.068 39.3813 107.068 39.84V45H105.636V39.84C105.636 39.2267 105.494 38.752 105.212 38.416C104.934 38.0747 104.51 37.904 103.94 37.904C103.518 37.904 103.124 38.0053 102.756 38.208C102.393 38.4107 102.057 38.6853 101.748 39.032V45H100.316V36.896H101.172C101.374 36.896 101.5 36.9947 101.548 37.192L101.66 38.072ZM110.709 33.216V45H109.285V33.216H110.709ZM114.523 36.896V45H113.099V36.896H114.523ZM114.827 34.352C114.827 34.4907 114.797 34.6213 114.739 34.744C114.685 34.8613 114.611 34.968 114.515 35.064C114.424 35.1547 114.315 35.2267 114.187 35.28C114.064 35.3333 113.933 35.36 113.795 35.36C113.656 35.36 113.525 35.3333 113.403 35.28C113.285 35.2267 113.181 35.1547 113.091 35.064C113 34.968 112.928 34.8613 112.875 34.744C112.821 34.6213 112.795 34.4907 112.795 34.352C112.795 34.2133 112.821 34.0827 112.875 33.96C112.928 33.832 113 33.7227 113.091 33.632C113.181 33.536 113.285 33.4613 113.403 33.408C113.525 33.3547 113.656 33.328 113.795 33.328C113.933 33.328 114.064 33.3547 114.187 33.408C114.315 33.4613 114.424 33.536 114.515 33.632C114.611 33.7227 114.685 33.832 114.739 33.96C114.797 34.0827 114.827 34.2133 114.827 34.352ZM118.206 38.072C118.382 37.8747 118.569 37.696 118.766 37.536C118.964 37.376 119.172 37.24 119.39 37.128C119.614 37.0107 119.849 36.9227 120.094 36.864C120.345 36.8 120.614 36.768 120.902 36.768C121.345 36.768 121.734 36.8427 122.07 36.992C122.412 37.136 122.694 37.344 122.918 37.616C123.148 37.8827 123.321 38.2053 123.438 38.584C123.556 38.9627 123.614 39.3813 123.614 39.84V45H122.182V39.84C122.182 39.2267 122.041 38.752 121.758 38.416C121.481 38.0747 121.057 37.904 120.486 37.904C120.065 37.904 119.67 38.0053 119.302 38.208C118.94 38.4107 118.604 38.6853 118.294 39.032V45H116.862V36.896H117.718C117.921 36.896 118.046 36.9947 118.094 37.192L118.206 38.072ZM131.208 40.064C131.208 39.7333 131.16 39.432 131.064 39.16C130.974 38.8827 130.838 38.6453 130.656 38.448C130.48 38.2453 130.264 38.0907 130.008 37.984C129.752 37.872 129.462 37.816 129.136 37.816C128.454 37.816 127.912 38.016 127.512 38.416C127.118 38.8107 126.872 39.36 126.776 40.064H131.208ZM132.36 43.864C132.184 44.0773 131.974 44.264 131.728 44.424C131.483 44.5787 131.219 44.7067 130.936 44.808C130.659 44.9093 130.371 44.984 130.072 45.032C129.774 45.0853 129.478 45.112 129.184 45.112C128.624 45.112 128.107 45.0187 127.632 44.832C127.163 44.64 126.755 44.3627 126.408 44C126.067 43.632 125.8 43.1787 125.608 42.64C125.416 42.1013 125.32 41.4827 125.32 40.784C125.32 40.2187 125.406 39.6907 125.576 39.2C125.752 38.7093 126.003 38.2853 126.328 37.928C126.654 37.5653 127.051 37.2827 127.52 37.08C127.99 36.872 128.518 36.768 129.104 36.768C129.59 36.768 130.038 36.8507 130.448 37.016C130.864 37.176 131.222 37.4107 131.52 37.72C131.824 38.024 132.062 38.4027 132.232 38.856C132.403 39.304 132.488 39.816 132.488 40.392C132.488 40.616 132.464 40.7653 132.416 40.84C132.368 40.9147 132.278 40.952 132.144 40.952H126.728C126.744 41.464 126.814 41.9093 126.936 42.288C127.064 42.6667 127.24 42.984 127.464 43.24C127.688 43.4907 127.955 43.68 128.264 43.808C128.574 43.9307 128.92 43.992 129.304 43.992C129.662 43.992 129.968 43.952 130.224 43.872C130.486 43.7867 130.71 43.696 130.896 43.6C131.083 43.504 131.238 43.416 131.36 43.336C131.488 43.2507 131.598 43.208 131.688 43.208C131.806 43.208 131.896 43.2533 131.96 43.344L132.36 43.864ZM144.531 35.328C144.483 35.408 144.43 35.4693 144.371 35.512C144.318 35.5493 144.251 35.568 144.171 35.568C144.08 35.568 143.974 35.5227 143.851 35.432C143.728 35.3413 143.574 35.2427 143.387 35.136C143.206 35.024 142.984 34.9227 142.723 34.832C142.467 34.7413 142.155 34.696 141.787 34.696C141.44 34.696 141.134 34.744 140.867 34.84C140.606 34.9307 140.384 35.056 140.203 35.216C140.027 35.376 139.894 35.5653 139.803 35.784C139.712 35.9973 139.667 36.2293 139.667 36.48C139.667 36.8 139.744 37.0667 139.899 37.28C140.059 37.488 140.267 37.6667 140.523 37.816C140.784 37.9653 141.078 38.096 141.403 38.208C141.734 38.3147 142.07 38.4267 142.411 38.544C142.758 38.6613 143.094 38.7947 143.419 38.944C143.75 39.088 144.043 39.272 144.299 39.496C144.56 39.72 144.768 39.9947 144.923 40.32C145.083 40.6453 145.163 41.0453 145.163 41.52C145.163 42.0213 145.078 42.4933 144.907 42.936C144.736 43.3733 144.486 43.7547 144.155 44.08C143.83 44.4053 143.427 44.6613 142.947 44.848C142.472 45.0347 141.931 45.128 141.323 45.128C140.576 45.128 139.899 44.9947 139.291 44.728C138.683 44.456 138.163 44.0907 137.731 43.632L138.179 42.896C138.222 42.8373 138.272 42.7893 138.331 42.752C138.395 42.7093 138.464 42.688 138.539 42.688C138.608 42.688 138.686 42.7173 138.771 42.776C138.862 42.8293 138.963 42.8987 139.075 42.984C139.187 43.0693 139.315 43.1627 139.459 43.264C139.603 43.3653 139.766 43.4587 139.947 43.544C140.134 43.6293 140.344 43.7013 140.579 43.76C140.814 43.8133 141.078 43.84 141.371 43.84C141.739 43.84 142.067 43.7893 142.355 43.688C142.643 43.5867 142.886 43.4453 143.083 43.264C143.286 43.0773 143.44 42.856 143.547 42.6C143.654 42.344 143.707 42.0587 143.707 41.744C143.707 41.3973 143.627 41.1147 143.467 40.896C143.312 40.672 143.107 40.4853 142.851 40.336C142.595 40.1867 142.302 40.0613 141.971 39.96C141.64 39.8533 141.304 39.7467 140.963 39.64C140.622 39.528 140.286 39.4 139.955 39.256C139.624 39.112 139.331 38.9253 139.075 38.696C138.819 38.4667 138.611 38.1813 138.451 37.84C138.296 37.4933 138.219 37.0667 138.219 36.56C138.219 36.1547 138.296 35.7627 138.451 35.384C138.611 35.0053 138.84 34.6693 139.139 34.376C139.443 34.0827 139.814 33.848 140.251 33.672C140.694 33.496 141.2 33.408 141.771 33.408C142.411 33.408 142.992 33.5093 143.515 33.712C144.043 33.9147 144.507 34.208 144.907 34.592L144.531 35.328ZM152.612 38.336C152.569 38.3947 152.526 38.44 152.484 38.472C152.441 38.504 152.382 38.52 152.308 38.52C152.228 38.52 152.14 38.488 152.044 38.424C151.948 38.3547 151.828 38.28 151.684 38.2C151.545 38.12 151.372 38.048 151.164 37.984C150.961 37.9147 150.71 37.88 150.412 37.88C150.012 37.88 149.66 37.952 149.356 38.096C149.052 38.2347 148.796 38.4373 148.588 38.704C148.385 38.9707 148.23 39.2933 148.124 39.672C148.022 40.0507 147.972 40.4747 147.972 40.944C147.972 41.4347 148.028 41.872 148.14 42.256C148.252 42.6347 148.409 42.9547 148.612 43.216C148.82 43.472 149.068 43.6693 149.356 43.808C149.649 43.9413 149.977 44.008 150.34 44.008C150.686 44.008 150.972 43.968 151.196 43.888C151.42 43.8027 151.604 43.7093 151.748 43.608C151.897 43.5067 152.02 43.416 152.116 43.336C152.217 43.2507 152.316 43.208 152.412 43.208C152.529 43.208 152.62 43.2533 152.684 43.344L153.084 43.864C152.908 44.0827 152.708 44.2693 152.484 44.424C152.26 44.5787 152.017 44.7093 151.756 44.816C151.5 44.9173 151.23 44.992 150.948 45.04C150.665 45.088 150.377 45.112 150.084 45.112C149.577 45.112 149.105 45.0187 148.668 44.832C148.236 44.6453 147.86 44.376 147.54 44.024C147.22 43.6667 146.969 43.2293 146.788 42.712C146.606 42.1947 146.516 41.6053 146.516 40.944C146.516 40.3413 146.598 39.784 146.764 39.272C146.934 38.76 147.18 38.32 147.5 37.952C147.825 37.5787 148.222 37.288 148.692 37.08C149.166 36.872 149.71 36.768 150.324 36.768C150.894 36.768 151.396 36.8613 151.828 37.048C152.265 37.2293 152.652 37.488 152.988 37.824L152.612 38.336ZM156.044 37.976C156.391 37.608 156.775 37.3147 157.196 37.096C157.618 36.8773 158.103 36.768 158.652 36.768C159.095 36.768 159.484 36.8427 159.82 36.992C160.162 37.136 160.444 37.344 160.668 37.616C160.898 37.8827 161.071 38.2053 161.188 38.584C161.306 38.9627 161.364 39.3813 161.364 39.84V45H159.932V39.84C159.932 39.2267 159.791 38.752 159.508 38.416C159.231 38.0747 158.807 37.904 158.236 37.904C157.815 37.904 157.42 38.0053 157.052 38.208C156.69 38.4107 156.354 38.6853 156.044 39.032V45H154.612V33.216H156.044V37.976ZM166.95 36.768C167.542 36.768 168.076 36.8667 168.55 37.064C169.025 37.2613 169.43 37.5413 169.766 37.904C170.102 38.2667 170.358 38.7067 170.534 39.224C170.716 39.736 170.806 40.3093 170.806 40.944C170.806 41.584 170.716 42.16 170.534 42.672C170.358 43.184 170.102 43.6213 169.766 43.984C169.43 44.3467 169.025 44.6267 168.55 44.824C168.076 45.016 167.542 45.112 166.95 45.112C166.353 45.112 165.814 45.016 165.334 44.824C164.86 44.6267 164.454 44.3467 164.118 43.984C163.782 43.6213 163.524 43.184 163.342 42.672C163.166 42.16 163.078 41.584 163.078 40.944C163.078 40.3093 163.166 39.736 163.342 39.224C163.524 38.7067 163.782 38.2667 164.118 37.904C164.454 37.5413 164.86 37.2613 165.334 37.064C165.814 36.8667 166.353 36.768 166.95 36.768ZM166.95 44C167.75 44 168.348 43.7333 168.742 43.2C169.137 42.6613 169.334 41.912 169.334 40.952C169.334 39.9867 169.137 39.2347 168.742 38.696C168.348 38.1573 167.75 37.888 166.95 37.888C166.545 37.888 166.19 37.9573 165.886 38.096C165.588 38.2347 165.337 38.4347 165.134 38.696C164.937 38.9573 164.788 39.28 164.686 39.664C164.59 40.0427 164.542 40.472 164.542 40.952C164.542 41.912 164.74 42.6613 165.134 43.2C165.534 43.7333 166.14 44 166.95 44ZM176.028 36.768C176.62 36.768 177.154 36.8667 177.628 37.064C178.103 37.2613 178.508 37.5413 178.844 37.904C179.18 38.2667 179.436 38.7067 179.612 39.224C179.794 39.736 179.884 40.3093 179.884 40.944C179.884 41.584 179.794 42.16 179.612 42.672C179.436 43.184 179.18 43.6213 178.844 43.984C178.508 44.3467 178.103 44.6267 177.628 44.824C177.154 45.016 176.62 45.112 176.028 45.112C175.431 45.112 174.892 45.016 174.412 44.824C173.938 44.6267 173.532 44.3467 173.196 43.984C172.86 43.6213 172.602 43.184 172.42 42.672C172.244 42.16 172.156 41.584 172.156 40.944C172.156 40.3093 172.244 39.736 172.42 39.224C172.602 38.7067 172.86 38.2667 173.196 37.904C173.532 37.5413 173.938 37.2613 174.412 37.064C174.892 36.8667 175.431 36.768 176.028 36.768ZM176.028 44C176.828 44 177.426 43.7333 177.82 43.2C178.215 42.6613 178.412 41.912 178.412 40.952C178.412 39.9867 178.215 39.2347 177.82 38.696C177.426 38.1573 176.828 37.888 176.028 37.888C175.623 37.888 175.268 37.9573 174.964 38.096C174.666 38.2347 174.415 38.4347 174.212 38.696C174.015 38.9573 173.866 39.28 173.764 39.664C173.668 40.0427 173.62 40.472 173.62 40.952C173.62 41.912 173.818 42.6613 174.212 43.2C174.612 43.7333 175.218 44 176.028 44ZM183.163 33.216V45H181.738V33.216H183.163Z" fill="#424551"/>
<rect x="0.5" y="5.5" width="15" height="15" rx="2.5" fill="#FF3F3A" stroke="#FF3F3A"/>
<path fill-rule="evenodd" clip-rule="evenodd" d="M12.8277 9.19526C13.0574 9.45561 13.0574 9.87772 12.8277 10.1381L6.94536 16.8047C6.71564 17.0651 6.34319 17.0651 6.11347 16.8047L3.17229 13.4714C2.94257 13.2111 2.94257 12.7889 3.17229 12.5286C3.40201 12.2682 3.77446 12.2682 4.00418 12.5286L6.52941 15.3905L11.9958 9.19526C12.2255 8.93491 12.598 8.93491 12.8277 9.19526Z" fill="white"/>
</svg>
